<svg width="50" height="51" viewBox="0 0 50 51" version="1.1" xmlns="http://www.w3.org/2000/svg" xmlns:xlink="http://www.w3.org/1999/xlink">
<title>Group</title>
<desc>Created using Figma</desc>
<g id="Canvas" transform="translate(-1693 -2763)">
<g id="Group">
<g id="Vector">
<use xlink:href="#path0_fill" transform="translate(1693 2763)" fill="#FFE63F"/>
</g>
<g id="Vector">
<use xlink:href="#path1_fill" transform="translate(1705.5 2774.86)" fill="#FFE63F"/>
</g>
<g id="Vector">
<use xlink:href="#path2_fill" transform="translate(1698.6 2767.75)" fill="#FFE63F"/>
</g>
</g>
</g>
<defs>
<path id="path0_fill" d="M 36.0483 2.58004C 23.605 -3.52473 8.57278 1.57651 2.55991 13.9533C -3.53647 26.3301 1.64128 41.3829 14.0011 47.4877C 17.5921 49.2438 21.3501 50.0801 25.1082 50.0801C 25.4422 50.5819 26.0268 51 26.6949 51C 27.7806 51 28.6157 50.1637 28.6157 49.0766C 28.6157 47.9894 27.7806 47.1532 26.6949 47.1532C 26.0268 47.1532 25.4422 47.4877 25.1082 48.0731C 21.6842 48.0731 18.1767 47.3204 14.9197 45.7315C 3.47854 40.1285 -1.19813 26.2464 4.39718 14.8732C 9.99249 3.49993 23.772 -1.18317 35.1296 4.41983C 45.9027 9.68832 50.6629 22.3996 46.4038 33.4384C 45.4851 33.522 44.7335 34.3582 44.7335 35.3618C 44.7335 36.4489 45.5686 37.2852 46.6543 37.2852C 47.74 37.2852 48.5751 36.4489 48.5751 35.3618C 48.5751 34.9436 48.4916 34.6091 48.241 34.3582C 53.0012 22.2324 47.8235 8.35029 36.0483 2.58004Z"/>
<path id="path1_fill" d="M 1.92078 16.9753C 0.83512 16.9753 0 17.8116 0 18.8987C 0 19.9022 0.835121 20.8221 1.83727 20.8221C 3.08995 22.5783 4.76019 23.9999 6.68097 25.0035C 8.51823 25.9234 10.5225 26.3415 12.4433 26.3415C 17.287 26.3415 21.9637 23.6654 24.302 18.9823C 25.8887 15.8045 26.0558 12.2922 24.9701 8.9471C 23.8009 5.60203 21.4626 2.92597 18.2891 1.33706C 11.7752 -1.84076 3.92507 0.835295 0.668097 7.35819L 0.41756 7.77633L 0.501073 7.77633C 0.167024 8.44534 -0.0835123 9.36524 0.584584 9.69974L 7.51609 12.3758C 7.51609 12.6267 7.43258 12.8776 7.43258 13.1284C 7.43258 15.8881 9.6874 18.1461 12.4433 18.1461C 15.1992 18.1461 17.454 15.8881 17.454 13.1284C 17.454 10.3688 15.1992 8.11083 12.4433 8.11083C 10.7731 8.11083 9.26984 8.9471 8.35121 10.2015L 2.67239 8.02721C 4.00858 5.5184 6.17989 3.59498 8.85228 2.67509C 11.6082 1.75519 14.6146 1.92244 17.287 3.17685C 22.7153 5.85291 24.9701 12.4594 22.2977 17.8952C 21.045 20.5712 18.7902 22.4947 15.9508 23.4982C 13.1949 24.4181 10.1885 24.2508 7.51609 22.9964C 5.92936 22.2438 4.59316 21.073 3.50751 19.6513C 3.59102 19.4005 3.67453 19.1496 3.67453 18.8987C 3.84156 17.8952 2.92292 16.9753 1.92078 16.9753Z"/>
<path id="path2_fill" d="M 36.2921 9.70072C 36.2921 8.61357 35.457 7.7773 34.3713 7.7773C 33.2857 7.7773 32.4506 8.61357 32.4506 9.70072C 32.4506 10.7042 33.2857 11.5405 34.2878 11.6241C 37.1272 16.5581 37.3778 22.6629 34.8724 27.8477C 32.7846 32.0291 29.2771 35.1233 24.9345 36.5449C 20.5919 38.0502 15.9152 37.7157 11.8231 35.7087C 3.30485 31.5273 -0.202659 21.1576 3.97295 12.6277C 6.47831 7.52642 11.4055 4.01409 16.9173 3.17782C 17.2514 3.59596 17.7524 3.84684 18.337 3.84684C 19.4227 3.84684 20.2578 3.01057 20.2578 1.92342C 20.2578 0.836269 19.4227 -1.59506e-07 18.337 -1.59506e-07C 17.5854 -1.59506e-07 17.0008 0.418134 16.6668 1.00352C 10.4034 1.92342 4.80807 5.93751 1.96866 11.7078C -0.286171 16.3909 -0.62022 21.6594 1.05002 26.5933C 2.72026 31.5273 6.22777 35.4578 10.8209 37.7993C 13.5768 39.1374 16.4998 39.8064 19.3392 39.8064C 26.5212 39.8064 33.4527 35.7923 36.7932 28.9349C 39.6326 23.081 39.3821 16.14 36.1251 10.537C 36.2086 10.2861 36.2921 10.0352 36.2921 9.70072Z"/>
</defs>
</svg>
