<svg width="219" height="219" viewBox="0 0 219 219" version="1.1" xmlns="http://www.w3.org/2000/svg" xmlns:xlink="http://www.w3.org/1999/xlink">
<title>Group</title>
<desc>Created using Figma</desc>
<g id="Canvas" transform="translate(-2010 -967)">
<g id="Group">
<g id="Group">
<g id="Vector">
<use xlink:href="#path0_fill" transform="translate(2010 967)" fill="#DCC000" fill-opacity="0.25"/>
</g>
<g id="Vector">
<use xlink:href="#path1_fill" transform="translate(2064.74 1017.94)" fill="#DCC000" fill-opacity="0.25"/>
</g>
<g id="Vector">
<use xlink:href="#path2_fill" transform="translate(2034.54 987.416)" fill="#DCC000" fill-opacity="0.25"/>
</g>
</g>
</g>
</g>
<defs>
<path id="path0_fill" d="M 157.891 11.079C 103.39 -15.1356 37.5488 6.76973 11.2124 59.9171C -15.4897 113.064 7.1888 177.703 61.3247 203.918C 77.0533 211.459 93.5136 215.05 109.974 215.05C 111.437 217.204 113.997 219 116.924 219C 121.679 219 125.337 215.409 125.337 210.741C 125.337 206.072 121.679 202.481 116.924 202.481C 113.997 202.481 111.437 203.918 109.974 206.431C 94.9767 206.431 79.6138 203.199 65.3483 196.376C 15.236 172.317 -5.24782 112.705 19.2596 63.8672C 43.7671 15.0291 104.121 -5.08069 153.868 18.9793C 201.054 41.6028 221.903 96.1865 203.248 143.588C 199.225 143.947 195.933 147.538 195.933 151.848C 195.933 156.516 199.591 160.107 204.346 160.107C 209.101 160.107 212.759 156.516 212.759 151.848C 212.759 150.052 212.393 148.616 211.296 147.538C 232.145 95.4683 209.467 35.8571 157.891 11.079Z"/>
<path id="path1_fill" d="M 8.413 72.8939C 3.65783 72.8939 0 76.4849 0 81.1532C 0 85.4625 3.65783 89.4126 8.04723 89.4126C 13.534 96.9538 20.8496 103.059 29.2626 107.368C 37.3099 111.318 46.0886 113.113 54.5017 113.113C 75.7171 113.113 96.2009 101.622 106.443 81.5124C 113.393 67.8664 114.124 52.7841 109.369 38.4199C 104.248 24.0558 94.0062 12.5644 80.1065 5.74148C 51.5754 -7.90446 17.1918 3.58686 2.92626 31.5969L 1.82891 33.3925L 2.1947 33.3925C 0.731567 36.2653 -0.365784 40.2154 2.56048 41.6518L 32.9205 53.1432C 32.9205 54.2205 32.5547 55.2978 32.5547 56.3751C 32.5547 68.2255 42.4308 77.9213 54.5017 77.9213C 66.5725 77.9213 76.4486 68.2255 76.4486 56.3751C 76.4486 44.5247 66.5725 34.8289 54.5017 34.8289C 47.186 34.8289 40.6019 38.4199 36.5783 43.8065L 11.7051 34.4698C 17.5576 23.6967 27.0679 15.4373 38.773 11.4871C 50.8438 7.53699 64.012 8.2552 75.7171 13.6418C 99.493 25.1331 109.369 53.5023 97.664 76.844C 92.1773 88.3353 82.3012 96.5947 69.8645 100.904C 57.7937 104.854 44.6255 104.136 32.9205 98.7493C 25.9706 95.5174 20.1181 90.4899 15.3629 84.3852C 15.7287 83.3079 16.0944 82.2306 16.0944 81.1532C 16.826 76.844 12.8024 72.8939 8.413 72.8939Z"/>
<path id="path2_fill" d="M 158.96 41.656C 158.96 36.9877 155.302 33.3966 150.547 33.3966C 145.791 33.3966 142.133 36.9877 142.133 41.656C 142.133 45.9653 145.791 49.5563 150.181 49.9154C 162.617 71.1025 163.715 97.3171 152.741 119.582C 143.597 137.537 128.234 150.824 109.213 156.928C 90.1923 163.392 69.7085 161.956 51.7851 153.337C 14.4752 135.382 -0.887648 90.8532 17.4015 54.2247C 28.375 32.3193 49.9562 17.237 74.0979 13.6459C 75.561 15.4415 77.7557 16.5188 80.3162 16.5188C 85.0714 16.5188 88.7292 12.9277 88.7292 8.25938C 88.7292 3.59104 85.0714 -6.84936e-07 80.3162 -6.84936e-07C 77.0241 -6.84936e-07 74.4637 1.79552 73.0005 4.30924C 45.5668 8.25938 21.0593 25.4964 8.62271 50.2745C -1.25343 70.3843 -2.71656 93.0078 4.5991 114.195C 11.9148 135.382 27.2776 152.26 47.3957 162.315C 59.4666 168.061 72.269 170.933 84.7056 170.933C 116.163 170.933 146.523 153.696 161.154 124.25C 173.591 99.1126 172.493 69.307 158.228 45.2471C 158.594 44.1697 158.96 43.0924 158.96 41.656Z"/>
</defs>
</svg>
